# xmcd
#
# Track frame offsets:
#	150
#	9601
#	19197
#	31760
#	42054
#	56484
#	67442
#	77699
#	89126
#	101312
#	114504
#	123873
#	137951
#	150963
#
# Disc length: 2185 seconds
#
# Revision: 1
# Processed by: cddbd v1.5.2PL0 Copyright (c) Steve Scherf et al.
# Submitted via: audiograbber 1.82.02
#
DISCID=af08870e
DTITLE=Reg Lindsay - Songs For Country Folks
DYEAR=1969
DGENRE=Country
TTITLE0=Geisha Girl
TTITLE1=Let's Be Sweethearts Again
TTITLE2=The House Down Willow Lane
TTITLE3=It Tickles
TTITLE4=The Most Beautiful Things In The World
TTITLE5=Twinkle Chimes
TTITLE6=When No One Stands Alone
TTITLE7=Funny Way Of Laughing
TTITLE8=The Streets Of Berlin
TTITLE9=Give My Love To Rose
TTITLE10=Hey Sheriff
TTITLE11=The Ghost Of Tom Dooley
TTITLE12=Desert Lullabye
TTITLE13=The Girl In My Hometown
EXTD=
EXTT0=
EXTT1=
EXTT2=
EXTT3=
EXTT4=
EXTT5=
EXTT6=
EXTT7=
EXTT8=
EXTT9=
EXTT10=
EXTT11=
EXTT12=
EXTT13=
PLAYORDER=
